<svg width="992" height="428" viewBox="0 0 992 428" fill="none" xmlns="http://www.w3.org/2000/svg">
<path d="M405.934 2.53314C403 5.06648 402.867 5.86649 402.467 27.4665C401.934 51.8665 402.334 54.7998 406.2 58.6665C408.6 61.0665 410.734 61.3332 425 61.3332C440.867 61.3332 441.134 61.3332 444.6 57.5998C446.6 55.5998 448.867 52.7998 449.534 51.4665C452.867 45.5998 469.267 54.1331 474.467 64.2665C475.934 66.9331 477.534 72.9332 478.2 77.5998C478.867 82.2665 479.534 134.4 479.534 193.6V301.2L488.6 320.933C500.2 346.533 500.2 346.4 503 344.533C504.334 343.733 509.667 334.133 514.734 323.2L524 301.2L524.867 184.666C525.534 67.3332 525.534 65.8665 528.334 59.9998C532.334 51.5998 536.867 47.8665 544.067 47.0665C559.533 45.3332 581 55.0665 602.333 73.5998C614.067 83.7332 617.267 81.8665 612.734 67.0665C602.2 32.9332 579.934 10.7998 547.934 2.53314C539.134 0.399809 533.134 -0.000183105 502.734 -0.000183105H467.534L463.267 4.53314C456.2 11.8665 451.134 11.7331 445.934 4.13315C443.8 1.06648 442.867 0.933142 426.334 0.533142C411 0.133142 408.734 0.399809 405.934 2.53314Z" fill="#F76F28"/>
<path d="M40.1846 305H11.8643C11.2132 305 10.8877 304.593 10.8877 303.779L11.376 132.026C11.376 131.375 11.7015 131.05 12.3525 131.05H62.8896C71.9229 131.05 80.2236 133.247 87.792 137.642C95.3604 142.036 101.382 147.936 105.858 155.342C110.416 162.747 112.694 171.13 112.694 180.488C112.694 186.592 111.758 192.126 109.887 197.09C108.015 202.054 105.818 206.245 103.295 209.663C100.854 213.081 98.6156 215.604 96.5811 217.231C105.614 227.241 110.131 239.001 110.131 252.51L110.375 303.779C110.375 304.593 109.968 305 109.154 305H80.834C80.1829 305 79.8574 304.756 79.8574 304.268V252.51C79.8574 246.488 77.7415 241.279 73.5098 236.885C69.278 232.49 64.0697 230.293 57.8848 230.293H41.4053L41.1611 303.779C41.1611 304.593 40.8356 305 40.1846 305ZM62.8896 160.957H41.4053V200.264H62.8896C68.0166 200.264 72.5739 198.351 76.5615 194.526C80.6305 190.701 82.665 186.022 82.665 180.488C82.665 175.199 80.7119 170.641 76.8057 166.816C72.8994 162.91 68.2607 160.957 62.8896 160.957ZM213.28 305H132.47C131.819 305 131.493 304.593 131.493 303.779L131.737 132.026C131.737 131.375 132.063 131.05 132.714 131.05H213.036C213.687 131.05 214.013 131.457 214.013 132.271V160.225C214.013 160.876 213.687 161.201 213.036 161.201H161.767V200.264H213.036C213.687 200.264 214.013 200.589 214.013 201.24L214.257 229.561C214.257 230.212 213.931 230.537 213.28 230.537H161.767V274.238H213.28C213.931 274.238 214.257 274.645 214.257 275.459V304.023C214.257 304.674 213.931 305 213.28 305ZM278.954 307.441C270.084 307.441 261.905 305.163 254.418 300.605C247.012 296.048 241.072 289.985 236.596 282.417C232.201 274.767 230.004 266.385 230.004 257.271V245.796C230.004 244.901 230.411 244.453 231.225 244.453H259.301C259.952 244.453 260.277 244.901 260.277 245.796V257.271C260.277 262.723 262.108 267.443 265.771 271.431C269.433 275.337 273.827 277.29 278.954 277.29C284.162 277.29 288.598 275.296 292.26 271.309C295.922 267.24 297.753 262.56 297.753 257.271C297.753 251.167 293.765 245.837 285.79 241.279C284.488 240.465 282.779 239.489 280.663 238.35C278.629 237.129 276.187 235.745 273.339 234.199C270.491 232.653 267.724 231.147 265.038 229.683C262.353 228.136 259.748 226.672 257.226 225.288C248.111 219.917 241.316 213.203 236.84 205.146C232.445 197.008 230.248 187.894 230.248 177.803C230.248 168.525 232.527 160.143 237.084 152.656C241.641 145.251 247.582 139.391 254.906 135.078C262.312 130.684 270.328 128.486 278.954 128.486C287.825 128.486 295.963 130.684 303.368 135.078C310.774 139.554 316.674 145.495 321.068 152.9C325.544 160.306 327.782 168.607 327.782 177.803V198.311C327.782 198.962 327.457 199.287 326.806 199.287H298.729C298.078 199.287 297.753 198.962 297.753 198.311L297.509 177.803C297.509 171.943 295.678 167.183 292.016 163.521C288.354 159.858 284 158.027 278.954 158.027C273.827 158.027 269.433 159.98 265.771 163.887C262.108 167.793 260.277 172.432 260.277 177.803C260.277 183.255 261.417 187.812 263.695 191.475C266.055 195.137 270.328 198.636 276.513 201.973C277.164 202.298 278.669 203.112 281.029 204.414C283.389 205.716 285.993 207.181 288.842 208.809C291.771 210.355 294.416 211.779 296.776 213.081C299.136 214.302 300.561 215.034 301.049 215.278C309.35 219.917 315.901 225.614 320.702 232.368C325.585 239.123 328.026 247.424 328.026 257.271C328.026 266.792 325.829 275.337 321.435 282.905C316.959 290.474 311.018 296.455 303.612 300.85C296.207 305.244 287.987 307.441 278.954 307.441ZM391.625 307.441C382.755 307.441 374.576 305.163 367.089 300.605C359.683 296.048 353.702 289.985 349.145 282.417C344.669 274.767 342.431 266.385 342.431 257.271L342.675 178.047C342.675 168.77 344.913 160.428 349.389 153.022C353.783 145.535 359.724 139.554 367.211 135.078C374.698 130.521 382.836 128.242 391.625 128.242C400.74 128.242 408.918 130.48 416.161 134.956C423.485 139.432 429.345 145.454 433.739 153.022C438.215 160.509 440.453 168.851 440.453 178.047L440.697 257.271C440.697 266.385 438.5 274.727 434.105 282.295C429.63 289.945 423.689 296.048 416.283 300.605C408.878 305.163 400.658 307.441 391.625 307.441ZM391.625 277.29C396.671 277.29 401.065 275.256 404.809 271.187C408.552 267.036 410.424 262.397 410.424 257.271L410.18 178.047C410.18 172.513 408.43 167.834 404.931 164.009C401.431 160.184 396.996 158.271 391.625 158.271C386.498 158.271 382.104 160.143 378.441 163.887C374.779 167.63 372.948 172.35 372.948 178.047V257.271C372.948 262.723 374.779 267.443 378.441 271.431C382.104 275.337 386.498 277.29 391.625 277.29Z" fill="#014478"/>
<path d="M592.185 305H563.864C563.213 305 562.888 304.593 562.888 303.779L563.376 132.026C563.376 131.375 563.701 131.05 564.353 131.05H614.89C623.923 131.05 632.224 133.247 639.792 137.642C647.36 142.036 653.382 147.936 657.858 155.342C662.416 162.747 664.694 171.13 664.694 180.488C664.694 186.592 663.758 192.126 661.887 197.09C660.015 202.054 657.818 206.245 655.295 209.663C652.854 213.081 650.616 215.604 648.581 217.231C657.614 227.241 662.131 239.001 662.131 252.51L662.375 303.779C662.375 304.593 661.968 305 661.154 305H632.834C632.183 305 631.857 304.756 631.857 304.268V252.51C631.857 246.488 629.742 241.279 625.51 236.885C621.278 232.49 616.07 230.293 609.885 230.293H593.405L593.161 303.779C593.161 304.593 592.836 305 592.185 305ZM614.89 160.957H593.405V200.264H614.89C620.017 200.264 624.574 198.351 628.562 194.526C632.631 190.701 634.665 186.022 634.665 180.488C634.665 175.199 632.712 170.641 628.806 166.816C624.899 162.91 620.261 160.957 614.89 160.957ZM675.07 303.779L706.076 132.026C706.239 131.375 706.646 131.05 707.297 131.05H743.552C744.203 131.05 744.61 131.375 744.772 132.026L774.558 303.779C774.639 304.593 774.313 305 773.581 305H745.871C745.057 305 744.61 304.593 744.528 303.779L741.843 285.469H707.785L705.1 303.779C705.018 304.593 704.611 305 703.879 305H676.047C675.396 305 675.07 304.593 675.07 303.779ZM724.021 188.545L712.79 258.735H736.838L726.584 188.545L725.119 179.268L724.021 188.545ZM828.513 305H798.239C797.507 305 797.1 304.593 797.019 303.779L762.473 132.026C762.31 131.375 762.635 131.05 763.449 131.05H791.77C792.421 131.05 792.827 131.375 792.99 132.026L813.498 246.528L833.518 132.026C833.68 131.375 834.087 131.05 834.738 131.05H862.692C863.588 131.05 863.913 131.375 863.669 132.026L829.733 303.779C829.652 304.593 829.245 305 828.513 305ZM919.455 307.441C910.585 307.441 902.406 305.163 894.919 300.605C887.513 296.048 881.532 289.985 876.975 282.417C872.499 274.767 870.261 266.385 870.261 257.271L870.505 178.047C870.505 168.77 872.743 160.428 877.219 153.022C881.613 145.535 887.554 139.554 895.041 135.078C902.528 130.521 910.666 128.242 919.455 128.242C928.57 128.242 936.748 130.48 943.991 134.956C951.315 139.432 957.175 145.454 961.569 153.022C966.045 160.509 968.283 168.851 968.283 178.047L968.527 257.271C968.527 266.385 966.33 274.727 961.936 282.295C957.46 289.945 951.519 296.048 944.113 300.605C936.708 305.163 928.488 307.441 919.455 307.441ZM919.455 277.29C924.501 277.29 928.895 275.256 932.639 271.187C936.382 267.036 938.254 262.397 938.254 257.271L938.01 178.047C938.01 172.513 936.26 167.834 932.761 164.009C929.261 160.184 924.826 158.271 919.455 158.271C914.328 158.271 909.934 160.143 906.271 163.887C902.609 167.63 900.778 172.35 900.778 178.047V257.271C900.778 262.723 902.609 267.443 906.271 271.431C909.934 275.337 914.328 277.29 919.455 277.29Z" fill="#F76F28"/>
<path d="M16.822 413.258L0.514 375.458H9.964L24.22 408.938H18.658L33.13 375.458H41.824L25.462 413.258H16.822ZM62.9182 413.906C59.9302 413.906 57.1582 413.42 54.6022 412.448C52.0822 411.476 49.8862 410.108 48.0142 408.344C46.1782 406.58 44.7382 404.51 43.6942 402.134C42.6862 399.758 42.1822 397.166 42.1822 394.358C42.1822 391.55 42.6862 388.958 43.6942 386.582C44.7382 384.206 46.1962 382.136 48.0682 380.372C49.9402 378.608 52.1362 377.24 54.6562 376.268C57.1762 375.296 59.9122 374.81 62.8642 374.81C65.8522 374.81 68.5882 375.296 71.0722 376.268C73.5922 377.24 75.7702 378.608 77.6062 380.372C79.4782 382.136 80.9362 384.206 81.9802 386.582C83.0242 388.922 83.5462 391.514 83.5462 394.358C83.5462 397.166 83.0242 399.776 81.9802 402.188C80.9362 404.564 79.4782 406.634 77.6062 408.398C75.7702 410.126 73.5922 411.476 71.0722 412.448C68.5882 413.42 65.8702 413.906 62.9182 413.906ZM62.8642 406.454C64.5562 406.454 66.1042 406.166 67.5082 405.59C68.9482 405.014 70.2082 404.186 71.2882 403.106C72.3682 402.026 73.1962 400.748 73.7722 399.272C74.3842 397.796 74.6902 396.158 74.6902 394.358C74.6902 392.558 74.3842 390.92 73.7722 389.444C73.1962 387.968 72.3682 386.69 71.2882 385.61C70.2442 384.53 69.0022 383.702 67.5622 383.126C66.1222 382.55 64.5562 382.262 62.8642 382.262C61.1722 382.262 59.6062 382.55 58.1662 383.126C56.7622 383.702 55.5202 384.53 54.4402 385.61C53.3602 386.69 52.5142 387.968 51.9022 389.444C51.3262 390.92 51.0382 392.558 51.0382 394.358C51.0382 396.122 51.3262 397.76 51.9022 399.272C52.5142 400.748 53.3422 402.026 54.3862 403.106C55.4662 404.186 56.7262 405.014 58.1662 405.59C59.6062 406.166 61.1722 406.454 62.8642 406.454ZM97.4233 413.258V382.586H85.3273V375.458H118.267V382.586H106.171V413.258H97.4233ZM122.974 413.258V375.458H139.336C142.72 375.458 145.636 376.016 148.084 377.132C150.532 378.212 152.422 379.778 153.754 381.83C155.086 383.882 155.752 386.33 155.752 389.174C155.752 391.982 155.086 394.412 153.754 396.464C152.422 398.48 150.532 400.028 148.084 401.108C145.636 402.188 142.72 402.728 139.336 402.728H127.834L131.722 398.894V413.258H122.974ZM147.004 413.258L137.554 399.542H146.896L156.454 413.258H147.004ZM131.722 399.866L127.834 395.762H138.85C141.55 395.762 143.566 395.186 144.898 394.034C146.23 392.846 146.896 391.226 146.896 389.174C146.896 387.086 146.23 385.466 144.898 384.314C143.566 383.162 141.55 382.586 138.85 382.586H127.834L131.722 378.428V399.866ZM170.729 390.686H188.927V397.49H170.729V390.686ZM171.377 406.238H191.951V413.258H162.683V375.458H191.249V382.478H171.377V406.238ZM214.205 413.258V375.458H230.567C233.951 375.458 236.867 376.016 239.315 377.132C241.763 378.212 243.653 379.778 244.985 381.83C246.317 383.882 246.983 386.33 246.983 389.174C246.983 391.982 246.317 394.412 244.985 396.464C243.653 398.516 241.763 400.1 239.315 401.216C236.867 402.296 233.951 402.836 230.567 402.836H219.065L222.953 398.894V413.258H214.205ZM222.953 399.866L219.065 395.708H230.081C232.781 395.708 234.797 395.132 236.129 393.98C237.461 392.828 238.127 391.226 238.127 389.174C238.127 387.086 237.461 385.466 236.129 384.314C234.797 383.162 232.781 382.586 230.081 382.586H219.065L222.953 378.428V399.866ZM253.228 413.258V375.458H269.59C272.974 375.458 275.89 376.016 278.338 377.132C280.786 378.212 282.676 379.778 284.008 381.83C285.34 383.882 286.006 386.33 286.006 389.174C286.006 391.982 285.34 394.412 284.008 396.464C282.676 398.48 280.786 400.028 278.338 401.108C275.89 402.188 272.974 402.728 269.59 402.728H258.088L261.976 398.894V413.258H253.228ZM277.258 413.258L267.808 399.542H277.15L286.708 413.258H277.258ZM261.976 399.866L258.088 395.762H269.104C271.804 395.762 273.82 395.186 275.152 394.034C276.484 392.846 277.15 391.226 277.15 389.174C277.15 387.086 276.484 385.466 275.152 384.314C273.82 383.162 271.804 382.586 269.104 382.586H258.088L261.976 378.428V399.866ZM311.297 413.906C308.309 413.906 305.537 413.42 302.981 412.448C300.461 411.476 298.265 410.108 296.393 408.344C294.557 406.58 293.117 404.51 292.073 402.134C291.065 399.758 290.561 397.166 290.561 394.358C290.561 391.55 291.065 388.958 292.073 386.582C293.117 384.206 294.575 382.136 296.447 380.372C298.319 378.608 300.515 377.24 303.035 376.268C305.555 375.296 308.291 374.81 311.243 374.81C314.231 374.81 316.967 375.296 319.451 376.268C321.971 377.24 324.149 378.608 325.985 380.372C327.857 382.136 329.315 384.206 330.359 386.582C331.403 388.922 331.925 391.514 331.925 394.358C331.925 397.166 331.403 399.776 330.359 402.188C329.315 404.564 327.857 406.634 325.985 408.398C324.149 410.126 321.971 411.476 319.451 412.448C316.967 413.42 314.249 413.906 311.297 413.906ZM311.243 406.454C312.935 406.454 314.483 406.166 315.887 405.59C317.327 405.014 318.587 404.186 319.667 403.106C320.747 402.026 321.575 400.748 322.151 399.272C322.763 397.796 323.069 396.158 323.069 394.358C323.069 392.558 322.763 390.92 322.151 389.444C321.575 387.968 320.747 386.69 319.667 385.61C318.623 384.53 317.381 383.702 315.941 383.126C314.501 382.55 312.935 382.262 311.243 382.262C309.551 382.262 307.985 382.55 306.545 383.126C305.141 383.702 303.899 384.53 302.819 385.61C301.739 386.69 300.893 387.968 300.281 389.444C299.705 390.92 299.417 392.558 299.417 394.358C299.417 396.122 299.705 397.76 300.281 399.272C300.893 400.748 301.721 402.026 302.765 403.106C303.845 404.186 305.105 405.014 306.545 405.59C307.985 406.166 309.551 406.454 311.243 406.454ZM344.675 413.906C342.119 413.906 339.761 413.438 337.601 412.502C335.477 411.53 333.731 410.162 332.363 408.398L337.223 402.566C338.267 403.934 339.365 404.978 340.517 405.698C341.669 406.382 342.911 406.724 344.243 406.724C347.807 406.724 349.589 404.636 349.589 400.46V382.478H336.305V375.458H358.283V399.974C358.283 404.654 357.131 408.146 354.827 410.45C352.523 412.754 349.139 413.906 344.675 413.906ZM374.969 390.686H393.167V397.49H374.969V390.686ZM375.617 406.238H396.191V413.258H366.923V375.458H395.489V382.478H375.617V406.238ZM410.982 413.258V382.586H398.886V375.458H431.826V382.586H419.73V413.258H410.982ZM432.688 421.574L436.252 408.614L437.44 413.474C435.892 413.474 434.614 413.024 433.606 412.124C432.634 411.224 432.148 409.982 432.148 408.398C432.148 406.814 432.652 405.554 433.66 404.618C434.668 403.682 435.91 403.214 437.386 403.214C438.898 403.214 440.14 403.7 441.112 404.672C442.084 405.608 442.57 406.85 442.57 408.398C442.57 408.866 442.534 409.334 442.462 409.802C442.39 410.234 442.246 410.774 442.03 411.422C441.85 412.034 441.544 412.826 441.112 413.798L438.034 421.574H432.688ZM464.166 413.258V375.458H471.402L493.704 402.674H490.194V375.458H498.834V413.258H491.652L469.296 386.042H472.806V413.258H464.166ZM526.137 413.906C523.149 413.906 520.377 413.42 517.821 412.448C515.301 411.476 513.105 410.108 511.233 408.344C509.397 406.58 507.957 404.51 506.913 402.134C505.905 399.758 505.401 397.166 505.401 394.358C505.401 391.55 505.905 388.958 506.913 386.582C507.957 384.206 509.415 382.136 511.287 380.372C513.159 378.608 515.355 377.24 517.875 376.268C520.395 375.296 523.131 374.81 526.083 374.81C529.071 374.81 531.807 375.296 534.291 376.268C536.811 377.24 538.989 378.608 540.825 380.372C542.697 382.136 544.155 384.206 545.199 386.582C546.243 388.922 546.765 391.514 546.765 394.358C546.765 397.166 546.243 399.776 545.199 402.188C544.155 404.564 542.697 406.634 540.825 408.398C538.989 410.126 536.811 411.476 534.291 412.448C531.807 413.42 529.089 413.906 526.137 413.906ZM526.083 406.454C527.775 406.454 529.323 406.166 530.727 405.59C532.167 405.014 533.427 404.186 534.507 403.106C535.587 402.026 536.415 400.748 536.991 399.272C537.603 397.796 537.909 396.158 537.909 394.358C537.909 392.558 537.603 390.92 536.991 389.444C536.415 387.968 535.587 386.69 534.507 385.61C533.463 384.53 532.221 383.702 530.781 383.126C529.341 382.55 527.775 382.262 526.083 382.262C524.391 382.262 522.825 382.55 521.385 383.126C519.981 383.702 518.739 384.53 517.659 385.61C516.579 386.69 515.733 387.968 515.121 389.444C514.545 390.92 514.257 392.558 514.257 394.358C514.257 396.122 514.545 397.76 515.121 399.272C515.733 400.748 516.561 402.026 517.605 403.106C518.685 404.186 519.945 405.014 521.385 405.59C522.825 406.166 524.391 406.454 526.083 406.454ZM560.642 413.258V382.586H548.546V375.458H581.486V382.586H569.39V413.258H560.642ZM586.193 413.258V375.458H602.555C605.939 375.458 608.855 376.016 611.303 377.132C613.751 378.212 615.641 379.778 616.973 381.83C618.305 383.882 618.971 386.33 618.971 389.174C618.971 391.982 618.305 394.412 616.973 396.464C615.641 398.48 613.751 400.028 611.303 401.108C608.855 402.188 605.939 402.728 602.555 402.728H591.053L594.941 398.894V413.258H586.193ZM610.223 413.258L600.773 399.542H610.115L619.673 413.258H610.223ZM594.941 399.866L591.053 395.762H602.069C604.769 395.762 606.785 395.186 608.117 394.034C609.449 392.846 610.115 391.226 610.115 389.174C610.115 387.086 609.449 385.466 608.117 384.314C606.785 383.162 604.769 382.586 602.069 382.586H591.053L594.941 378.428V399.866ZM633.948 390.686H652.146V397.49H633.948V390.686ZM634.596 406.238H655.17V413.258H625.902V375.458H654.468V382.478H634.596V406.238ZM685.469 390.686H703.667V397.49H685.469V390.686ZM686.117 406.238H706.691V413.258H677.423V375.458H705.989V382.478H686.117V406.238ZM708.963 413.258L725.217 390.848V397.22L709.665 375.458H719.601L730.347 390.632L726.189 390.686L736.773 375.458H746.277L730.833 396.842V390.578L747.195 413.258H737.097L725.973 397.22H729.969L719.007 413.258H708.963ZM750.619 413.258V375.458H766.981C770.365 375.458 773.281 376.016 775.729 377.132C778.177 378.212 780.067 379.778 781.399 381.83C782.731 383.882 783.397 386.33 783.397 389.174C783.397 391.982 782.731 394.412 781.399 396.464C780.067 398.516 778.177 400.1 775.729 401.216C773.281 402.296 770.365 402.836 766.981 402.836H755.479L759.367 398.894V413.258H750.619ZM759.367 399.866L755.479 395.708H766.495C769.195 395.708 771.211 395.132 772.543 393.98C773.875 392.828 774.541 391.226 774.541 389.174C774.541 387.086 773.875 385.466 772.543 384.314C771.211 383.162 769.195 382.586 766.495 382.586H755.479L759.367 378.428V399.866ZM797.688 390.686H815.886V397.49H797.688V390.686ZM798.336 406.238H818.91V413.258H789.642V375.458H818.208V382.478H798.336V406.238ZM825.871 413.258V375.458H842.233C845.617 375.458 848.533 376.016 850.981 377.132C853.429 378.212 855.319 379.778 856.651 381.83C857.983 383.882 858.649 386.33 858.649 389.174C858.649 391.982 857.983 394.412 856.651 396.464C855.319 398.48 853.429 400.028 850.981 401.108C848.533 402.188 845.617 402.728 842.233 402.728H830.731L834.619 398.894V413.258H825.871ZM849.901 413.258L840.451 399.542H849.793L859.351 413.258H849.901ZM834.619 399.866L830.731 395.762H841.747C844.447 395.762 846.463 395.186 847.795 394.034C849.127 392.846 849.793 391.226 849.793 389.174C849.793 387.086 849.127 385.466 847.795 384.314C846.463 383.162 844.447 382.586 841.747 382.586H830.731L834.619 378.428V399.866ZM872.882 413.258V382.586H860.786V375.458H893.726V382.586H881.63V413.258H872.882ZM898.433 413.258V375.458H907.181V413.258H898.433ZM928.572 413.906C925.548 413.906 922.65 413.51 919.878 412.718C917.106 411.89 914.874 410.828 913.182 409.532L916.152 402.944C917.772 404.096 919.68 405.05 921.876 405.806C924.108 406.526 926.358 406.886 928.626 406.886C930.354 406.886 931.74 406.724 932.784 406.4C933.864 406.04 934.656 405.554 935.16 404.942C935.664 404.33 935.916 403.628 935.916 402.836C935.916 401.828 935.52 401.036 934.728 400.46C933.936 399.848 932.892 399.362 931.596 399.002C930.3 398.606 928.86 398.246 927.276 397.922C925.728 397.562 924.162 397.13 922.578 396.626C921.03 396.122 919.608 395.474 918.312 394.682C917.016 393.89 915.954 392.846 915.126 391.55C914.334 390.254 913.938 388.598 913.938 386.582C913.938 384.422 914.514 382.46 915.666 380.696C916.854 378.896 918.618 377.474 920.958 376.43C923.334 375.35 926.304 374.81 929.868 374.81C932.244 374.81 934.584 375.098 936.888 375.674C939.192 376.214 941.226 377.042 942.99 378.158L940.29 384.8C938.526 383.792 936.762 383.054 934.998 382.586C933.234 382.082 931.506 381.83 929.814 381.83C928.122 381.83 926.736 382.028 925.656 382.424C924.576 382.82 923.802 383.342 923.334 383.99C922.866 384.602 922.632 385.322 922.632 386.15C922.632 387.122 923.028 387.914 923.82 388.526C924.612 389.102 925.656 389.57 926.952 389.93C928.248 390.29 929.67 390.65 931.218 391.01C932.802 391.37 934.368 391.784 935.916 392.252C937.5 392.72 938.94 393.35 940.236 394.142C941.532 394.934 942.576 395.978 943.368 397.274C944.196 398.57 944.61 400.208 944.61 402.188C944.61 404.312 944.016 406.256 942.828 408.02C941.64 409.784 939.858 411.206 937.482 412.286C935.142 413.366 932.172 413.906 928.572 413.906ZM958.633 390.686H976.831V397.49H958.633V390.686ZM959.281 406.238H979.855V413.258H950.587V375.458H979.153V382.478H959.281V406.238Z" fill="#212222"/>
</svg>
